<svg aria-hidden="true" xmlns="http://www.w3.org/2000/svg" xmlns:xlink="http://www.w3.org/1999/xlink"><symbol viewBox="0 0 25 25" id="arrow-right" xmlns="http://www.w3.org/2000/svg">
<rect width="25" height="25" rx="2" viewBox="0 0 25 25" />
<path d="M5.5 12.5H19.5" stroke="#0A090A" stroke-width="2" stroke-linecap="round" stroke-linejoin="round"/>
<path d="M12.5 5.5L19.5 12.5L12.5 19.5" stroke-width="2" stroke="#0A090A" stroke-linecap="round" stroke-linejoin="round"/>
</symbol>
<symbol viewBox="0 0 16 15" id="check" xmlns="http://www.w3.org/2000/svg">
<rect width="16" height="15" rx="2"/>
<path d="M3.95703 7.75166L3.88825 7.68604L3.81923 7.75141L2.93123 8.59258L2.85486 8.66492L2.93097 8.73753L6.42671 12.0724L6.49574 12.1382L6.56476 12.0724L14.069 4.91352L14.1449 4.84116L14.069 4.76881L13.1873 3.92764L13.1183 3.86183L13.0493 3.92761L6.49577 10.1735L3.95703 7.75166Z" fill="white" stroke="white" stroke-width="0.2"/>
</symbol><symbol viewBox="0 0 18 18" id="close" xmlns="http://www.w3.org/2000/svg">
<g id="cclose-black-18dp (2) 1">
<path id="cVector" d="M15 5.10786L13.8921 4L9.5 8.39214L5.10786 4L4 5.10786L8.39214 9.5L4 13.8921L5.10786 15L9.5 10.6079L13.8921 15L15 13.8921L10.6079 9.5L15 5.10786Z"/>
</g>
</symbol><symbol viewBox="0 0 18 18" id="email" xmlns="http://www.w3.org/2000/svg">
<g id="demail-black-18dp 1" clip-path="url(#dclip0_3_14090)">
<path id="dVector" d="M15 3H3C2.175 3 1.5075 3.675 1.5075 4.5L1.5 13.5C1.5 14.325 2.175 15 3 15H15C15.825 15 16.5 14.325 16.5 13.5V4.5C16.5 3.675 15.825 3 15 3ZM14.7 6.1875L9.3975 9.5025C9.1575 9.6525 8.8425 9.6525 8.6025 9.5025L3.3 6.1875C3.1125 6.0675 3 5.865 3 5.6475C3 5.145 3.5475 4.845 3.975 5.1075L9 8.25L14.025 5.1075C14.4525 4.845 15 5.145 15 5.6475C15 5.865 14.8875 6.0675 14.7 6.1875Z"/>
</g>
<defs>
<clipPath id="dclip0_3_14090">
<rect width="18" height="18"/>
</clipPath>
</defs>
</symbol><symbol viewBox="0 0 40 40" id="location" xmlns="http://www.w3.org/2000/svg">
<path d="M20 20.0002C20.9167 20.0002 21.7017 19.6735 22.355 19.0202C23.0072 18.3679 23.3334 17.5835 23.3334 16.6668C23.3334 15.7502 23.0072 14.9652 22.355 14.3118C21.7017 13.6596 20.9167 13.3335 20 13.3335C19.0834 13.3335 18.2989 13.6596 17.6467 14.3118C16.9934 14.9652 16.6667 15.7502 16.6667 16.6668C16.6667 17.5835 16.9934 18.3679 17.6467 19.0202C18.2989 19.6735 19.0834 20.0002 20 20.0002ZM20 36.6668C15.5278 32.8613 12.1878 29.3263 9.98002 26.0618C7.77113 22.7985 6.66669 19.7779 6.66669 17.0002C6.66669 12.8335 8.00724 9.51405 10.6884 7.04183C13.3684 4.56961 16.4722 3.3335 20 3.3335C23.5278 3.3335 26.6317 4.56961 29.3117 7.04183C31.9928 9.51405 33.3334 12.8335 33.3334 17.0002C33.3334 19.7779 32.2295 22.7985 30.0217 26.0618C27.8128 29.3263 24.4722 32.8613 20 36.6668Z"/>
</symbol><symbol viewBox="0 0 68 105" id="logo" xmlns="http://www.w3.org/2000/svg">
<g clip-path="url(#fclip0_602_299)">
<path d="M34.3263 105L61.2682 68.261H7.3844L34.3263 105Z"/>
<path d="M30.8504 13.2589H18.0321V63.9099H30.8504V13.2589Z"/>
<path d="M49.9678 13.2589H37.1495V64.783H49.9678V13.2589Z"/>
<path d="M63.2188 13.2589H4.56116V16.7369H63.2188V13.2589Z"/>
<path d="M8.14711 16.7369H6.62915V50.8637H8.14711V16.7369Z"/>
<path d="M61.2682 16.7369H59.7502V50.8637H61.2682V16.7369Z"/>
<path d="M66.0421 6.52307H2.17065V11.087H66.0421V6.52307Z"/>
<path d="M68 0L0 0L0 2.82495H68V0Z"/>
</g>
<defs>
<clipPath id="fclip0_602_299">
<rect width="68" height="105"/>
</clipPath>
</defs>
</symbol><symbol viewBox="0 0 18 18" id="person" xmlns="http://www.w3.org/2000/svg">
<g id="gperson-black-18dp 1" clip-path="url(#gclip0_3_14078)">
<path id="gVector" d="M9 9C10.6575 9 12 7.6575 12 6C12 4.3425 10.6575 3 9 3C7.3425 3 6 4.3425 6 6C6 7.6575 7.3425 9 9 9ZM9 10.5C6.9975 10.5 3 11.505 3 13.5V14.25C3 14.6625 3.3375 15 3.75 15H14.25C14.6625 15 15 14.6625 15 14.25V13.5C15 11.505 11.0025 10.5 9 10.5Z"/>
</g>
<defs>
<clipPath id="gclip0_3_14078">
<rect width="18" height="18"/>
</clipPath>
</defs>
</symbol><symbol viewBox="0 0 32 29" id="phone" xmlns="http://www.w3.org/2000/svg">
<path d="M1.86667 29C1.33333 29 0.888889 28.8389 0.533333 28.5167C0.177778 28.1944 0 27.7917 0 27.3083V20.7833C0 20.4074 0.133333 20.0782 0.4 19.7957C0.666667 19.5143 1.00741 19.3333 1.42222 19.2528L7.55556 18.125C7.97037 18.0713 8.39289 18.1046 8.82311 18.2249C9.25215 18.3463 9.6 18.5278 9.86667 18.7694L14.0444 22.5556C16.2963 21.3204 18.3556 19.8569 20.2222 18.1653C22.0889 16.4736 23.6444 14.6611 24.8889 12.7278L20.6222 8.78056C20.3556 8.53889 20.1849 8.26339 20.1102 7.95406C20.0367 7.6458 20.0296 7.3037 20.0889 6.92778L21.2444 1.28889C21.3037 0.912963 21.4963 0.604167 21.8222 0.3625C22.1481 0.120833 22.5185 0 22.9333 0H30.1333C30.6667 0 31.1111 0.161111 31.4667 0.483333C31.8222 0.805556 32 1.20833 32 1.69167C32 5.15556 31.1479 8.53191 29.4436 11.8207C27.7404 15.1106 25.4886 18.024 22.688 20.561C19.8886 23.099 16.6744 25.1398 13.0453 26.6832C9.41511 28.2277 5.68889 29 1.86667 29Z"/>
</symbol><symbol viewBox="0 0 18 18" id="phone-form" xmlns="http://www.w3.org/2000/svg">
<g id="hphone-black-18dp 1" clip-path="url(#hclip0_3_14084)">
<path id="hVector" d="M13.996 11.1227L12.1579 10.9128C11.7164 10.8622 11.2822 11.0141 10.9711 11.3253L9.63948 12.6569C7.59147 11.6148 5.91254 9.94308 4.87044 7.88782L6.20925 6.54901C6.52043 6.23782 6.6724 5.80361 6.62174 5.36217L6.41188 3.53849C6.32504 2.80757 5.70991 2.25757 4.97176 2.25757H3.71979C2.90203 2.25757 2.22178 2.93783 2.27243 3.75559C2.65598 9.93584 7.59871 14.8714 13.7717 15.2549C14.5894 15.3056 15.2697 14.6253 15.2697 13.8075V12.5556C15.2769 11.8247 14.7269 11.2095 13.996 11.1227Z"/>
</g>
<defs>
<clipPath id="hclip0_3_14084">
<rect width="18" height="18"/>
</clipPath>
</defs>
</symbol><symbol viewBox="0 0 40 40" id="time" xmlns="http://www.w3.org/2000/svg">
<path d="M20 33.3335C27.3333 33.3335 33.3333 27.3335 33.3333 20.0002C33.3333 12.6668 27.3333 6.66683 20 6.66683C12.6667 6.66683 6.66668 12.6668 6.66668 20.0002C6.66668 27.3335 12.6667 33.3335 20 33.3335ZM20 3.3335C29.1667 3.3335 36.6667 10.8335 36.6667 20.0002C36.6667 29.1668 29.1667 36.6668 20 36.6668C10.8333 36.6668 3.33334 29.1668 3.33334 20.0002C3.33334 10.8335 10.8333 3.3335 20 3.3335ZM28.3333 23.1668L27.1667 25.3335L18.3333 20.5002V11.6668H20.8333V19.0002L28.3333 23.1668Z"/>
</symbol></svg>